<?xml version="1.0" encoding="utf-8"?>
<!-- Generator: Adobe Illustrator 16.0.0, SVG Export Plug-In . SVG Version: 6.00 Build 0)  -->
<!DOCTYPE svg PUBLIC "-//W3C//DTD SVG 1.0//EN" "http://www.w3.org/TR/2001/REC-SVG-20010904/DTD/svg10.dtd">
<svg version="1.0" id="Layer_1" xmlns="http://www.w3.org/2000/svg" xmlns:xlink="http://www.w3.org/1999/xlink" x="0px" y="0px"
	 width="142.427px" height="142.431px" viewBox="0 0 142.427 142.431" enable-background="new 0 0 142.427 142.431"
	 xml:space="preserve">
<path fill-rule="evenodd" clip-rule="evenodd" fill="#000000" d="M71.203,0C31.944,0,0,31.948,0,71.207
	c0,39.267,31.944,71.224,71.203,71.224c39.272,0,71.224-31.957,71.224-71.224C142.427,31.948,110.475,0,71.203,0L71.203,0z
	 M88.924,73.708H77.339v41.306H60.165V73.708h-8.166V59.12h8.166v-9.442c0-6.747,3.213-17.326,17.326-17.326l12.719,0.059V46.57
	h-9.228c-1.512,0-3.643,0.758-3.643,3.976v8.583h13.085L88.924,73.708z"/>
<g>
</g>
<g>
</g>
<g>
</g>
<g>
</g>
<g>
</g>
<g>
</g>
<g>
</g>
<g>
</g>
<g>
</g>
<g>
</g>
<g>
</g>
<g>
</g>
<g>
</g>
<g>
</g>
<g>
</g>
</svg>
