<?xml version="1.0" encoding="utf-8"?>
<!-- Generator: Adobe Illustrator 16.0.0, SVG Export Plug-In . SVG Version: 6.00 Build 0)  -->
<!DOCTYPE svg PUBLIC "-//W3C//DTD SVG 1.0//EN" "http://www.w3.org/TR/2001/REC-SVG-20010904/DTD/svg10.dtd">
<svg version="1.0" id="Layer_1" xmlns="http://www.w3.org/2000/svg" xmlns:xlink="http://www.w3.org/1999/xlink" x="0px" y="0px"
	 width="427.6px" height="266.564px" viewBox="0 0 427.6 266.564" enable-background="new 0 0 427.6 266.564" xml:space="preserve">
<polygon fill-rule="evenodd" clip-rule="evenodd" fill="#A8518A" points="0,266.564 148.787,1.979 425.732,0 427.6,266.564 "/>
<g>
	<path fill-rule="evenodd" clip-rule="evenodd" fill="#FFFFFF" d="M61.768,79.349h258.648c5.312,0,9.659,4.347,9.659,9.659v129.804
		c0,5.317-4.347,9.662-9.659,9.662H61.768c-5.312,0-9.66-4.345-9.66-9.662V89.008C52.108,83.696,56.456,79.349,61.768,79.349z"/>
	<g>
		<rect x="64.174" y="99.547" fill-rule="evenodd" clip-rule="evenodd" fill="none" width="250.996" height="91.766"/>
		<path fill="#808080" d="M79.84,108.71c0.805-2.939,2.31-6.718,3.289-8.327l1.959-0.21c-0.77,2.029-1.68,5.668-2.064,8.187
			L79.84,108.71z M85.054,108.71c0.77-2.939,2.309-6.718,3.254-8.327l1.959-0.21c-0.77,2.029-1.68,5.668-2.064,8.187L85.054,108.71z
			"/>
		<path fill="#808080" d="M109.614,123.616c-1.12,0.56-3.359,1.154-6.228,1.154c-6.648,0-11.651-4.233-11.651-11.966
			c0-7.383,5.003-12.386,12.316-12.386c2.939,0,4.793,0.63,5.598,1.05l-0.735,2.484c-1.155-0.56-2.799-0.98-4.758-0.98
			c-5.528,0-9.202,3.534-9.202,9.727c0,5.773,3.324,9.482,9.062,9.482c1.854,0,3.744-0.385,4.968-0.98L109.614,123.616z"/>
		<path fill="#808080" d="M117.378,116.968l-2.449,7.417h-3.149l8.013-23.582h3.674l8.047,23.582h-3.254l-2.52-7.417H117.378z
			 M125.11,114.588l-2.309-6.788c-0.525-1.54-0.875-2.939-1.225-4.304h-0.07c-0.35,1.399-0.735,2.834-1.189,4.269l-2.31,6.823
			H125.11z"/>
		<path fill="#808080" d="M134.975,101.083c1.469-0.245,3.394-0.455,5.843-0.455c3.009,0,5.213,0.7,6.613,1.959
			c1.294,1.12,2.064,2.834,2.064,4.934c0,2.134-0.63,3.813-1.819,5.038c-1.609,1.714-4.233,2.589-7.208,2.589
			c-0.91,0-1.75-0.035-2.449-0.21v9.447h-3.044V101.083z M138.019,112.454c0.665,0.175,1.504,0.245,2.519,0.245
			c3.674,0,5.913-1.785,5.913-5.039c0-3.114-2.204-4.618-5.563-4.618c-1.33,0-2.344,0.105-2.869,0.245V112.454z"/>
		<path fill="#808080" d="M158.064,103.392h-7.173v-2.589h17.459v2.589h-7.208v20.993h-3.079V103.392z"/>
		<path fill="#808080" d="M174.017,100.803v13.96c0,5.283,2.344,7.522,5.493,7.522c3.499,0,5.738-2.31,5.738-7.522v-13.96h3.079
			v13.75c0,7.242-3.813,10.216-8.922,10.216c-4.829,0-8.467-2.764-8.467-10.077v-13.89H174.017z"/>
		<path fill="#808080" d="M193.607,101.118c1.54-0.315,3.744-0.49,5.843-0.49c3.254,0,5.354,0.595,6.823,1.925
			c1.19,1.049,1.854,2.659,1.854,4.479c0,3.114-1.959,5.178-4.443,6.018v0.105c1.819,0.63,2.904,2.31,3.464,4.759
			c0.77,3.289,1.33,5.563,1.819,6.473h-3.149c-0.385-0.7-0.91-2.694-1.575-5.633c-0.7-3.254-1.959-4.479-4.723-4.583h-2.869v10.217
			h-3.044V101.118z M196.651,111.859h3.114c3.254,0,5.318-1.784,5.318-4.479c0-3.044-2.204-4.374-5.423-4.409
			c-1.469,0-2.519,0.14-3.009,0.28V111.859z"/>
		<path fill="#808080" d="M216.416,116.968l-2.449,7.417h-3.149l8.013-23.582h3.674l8.047,23.582h-3.254l-2.52-7.417H216.416z
			 M224.148,114.588l-2.309-6.788c-0.525-1.54-0.875-2.939-1.225-4.304h-0.07c-0.35,1.399-0.735,2.834-1.189,4.269l-2.31,6.823
			H224.148z"/>
		<path fill="#808080" d="M253.747,114.029c-0.175-3.289-0.385-7.243-0.35-10.182h-0.105c-0.805,2.764-1.784,5.738-2.974,8.957
			l-4.164,11.441h-2.309l-3.814-11.231c-1.12-3.324-2.064-6.368-2.729-9.167h-0.07c-0.07,2.939-0.245,6.893-0.455,10.426
			l-0.629,10.112h-2.904l1.645-23.582h3.884l4.023,11.406c0.98,2.904,1.785,5.493,2.379,7.942h0.105
			c0.595-2.379,1.435-4.969,2.484-7.942l4.199-11.406h3.884l1.47,23.582h-2.974L253.747,114.029z"/>
		<path fill="#808080" d="M282.153,112.349c0,8.118-4.934,12.421-10.952,12.421c-6.228,0-10.601-4.828-10.601-11.966
			c0-7.488,4.653-12.386,10.951-12.386C277.989,100.418,282.153,105.352,282.153,112.349z M263.854,112.734
			c0,5.039,2.729,9.552,7.522,9.552c4.828,0,7.557-4.444,7.557-9.797c0-4.688-2.449-9.587-7.522-9.587
			C266.373,102.902,263.854,107.556,263.854,112.734z"/>
		<path fill="#808080" d="M285.683,120.676c1.365,0.84,3.359,1.54,5.458,1.54c3.114,0,4.934-1.645,4.934-4.023
			c0-2.204-1.26-3.464-4.443-4.688c-3.849-1.365-6.228-3.359-6.228-6.683c0-3.674,3.044-6.403,7.627-6.403
			c2.414,0,4.164,0.56,5.213,1.155l-0.84,2.484c-0.77-0.42-2.344-1.12-4.479-1.12c-3.219,0-4.443,1.924-4.443,3.534
			c0,2.204,1.434,3.289,4.688,4.548c3.989,1.54,6.018,3.464,6.018,6.928c0,3.639-2.694,6.823-8.257,6.823
			c-2.274,0-4.758-0.7-6.018-1.54L285.683,120.676z"/>
		<path fill="#808080" d="M71.183,135.787h3.044v21.028h10.077v2.554H71.183V135.787z"/>
		<path fill="#808080" d="M106.484,147.333c0,8.117-4.934,12.421-10.952,12.421c-6.228,0-10.601-4.828-10.601-11.966
			c0-7.488,4.653-12.386,10.951-12.386C102.32,135.402,106.484,140.335,106.484,147.333z M88.185,147.718
			c0,5.039,2.729,9.552,7.522,9.552c4.828,0,7.557-4.444,7.557-9.797c0-4.688-2.449-9.587-7.522-9.587
			C90.704,137.886,88.185,142.54,88.185,147.718z"/>
		<path fill="#808080" d="M110.014,155.66c1.365,0.84,3.359,1.54,5.458,1.54c3.114,0,4.934-1.645,4.934-4.023
			c0-2.205-1.26-3.464-4.443-4.688c-3.849-1.365-6.228-3.359-6.228-6.683c0-3.674,3.044-6.403,7.627-6.403
			c2.414,0,4.164,0.56,5.213,1.155l-0.84,2.484c-0.77-0.42-2.344-1.12-4.479-1.12c-3.219,0-4.443,1.924-4.443,3.534
			c0,2.204,1.434,3.289,4.688,4.548c3.989,1.54,6.018,3.464,6.018,6.928c0,3.639-2.694,6.823-8.257,6.823
			c-2.274,0-4.758-0.7-6.018-1.54L110.014,155.66z"/>
		<path fill="#808080" d="M154.971,149.013c-0.175-3.289-0.385-7.243-0.35-10.182h-0.105c-0.805,2.764-1.784,5.738-2.974,8.957
			l-4.164,11.441h-2.309l-3.814-11.231c-1.12-3.324-2.064-6.368-2.729-9.167h-0.07c-0.07,2.939-0.245,6.893-0.455,10.426
			l-0.629,10.112h-2.904l1.645-23.582h3.884l4.023,11.406c0.98,2.904,1.785,5.493,2.379,7.942h0.105
			c0.595-2.379,1.435-4.969,2.484-7.942l4.199-11.406h3.884l1.47,23.582h-2.974L154.971,149.013z"/>
		<path fill="#808080" d="M183.377,147.333c0,8.117-4.934,12.421-10.952,12.421c-6.228,0-10.601-4.828-10.601-11.966
			c0-7.488,4.653-12.386,10.951-12.386C179.213,135.402,183.377,140.335,183.377,147.333z M165.078,147.718
			c0,5.039,2.729,9.552,7.522,9.552c4.828,0,7.558-4.444,7.558-9.797c0-4.688-2.449-9.587-7.523-9.587
			C167.597,137.886,165.078,142.54,165.078,147.718z"/>
		<path fill="#808080" d="M207.201,149.013c-0.175-3.289-0.385-7.243-0.35-10.182h-0.105c-0.805,2.764-1.784,5.738-2.974,8.957
			l-4.164,11.441h-2.309l-3.814-11.231c-1.12-3.324-2.064-6.368-2.729-9.167h-0.07c-0.07,2.939-0.245,6.893-0.455,10.426
			l-0.629,10.112h-2.904l1.645-23.582h3.884l4.023,11.406c0.98,2.904,1.785,5.493,2.379,7.942h0.105
			c0.595-2.379,1.435-4.969,2.484-7.942l4.199-11.406h3.884l1.47,23.582h-2.974L207.201,149.013z"/>
		<path fill="#808080" d="M227.665,148.313h-9.167v8.502h10.217v2.554h-13.261v-23.582h12.736v2.554h-9.692v7.452h9.167V148.313z"/>
		<path fill="#808080" d="M232.666,159.369v-23.582h3.324l7.558,11.931c1.75,2.764,3.114,5.249,4.233,7.663l0.07-0.035
			c-0.28-3.149-0.35-6.018-0.35-9.692v-9.867h2.869v23.582h-3.079l-7.487-11.966c-1.645-2.625-3.219-5.318-4.409-7.873l-0.105,0.035
			c0.175,2.974,0.245,5.808,0.245,9.727v10.077H232.666z"/>
		<path fill="#808080" d="M260.163,138.376h-7.173v-2.589h17.459v2.589h-7.208v20.993h-3.079V138.376z"/>
		<path fill="#808080" d="M292.28,147.333c0,8.117-4.934,12.421-10.952,12.421c-6.228,0-10.601-4.828-10.601-11.966
			c0-7.488,4.653-12.386,10.951-12.386C288.117,135.402,292.28,140.335,292.28,147.333z M273.981,147.718
			c0,5.039,2.729,9.552,7.522,9.552c4.828,0,7.558-4.444,7.558-9.797c0-4.688-2.449-9.587-7.523-9.587
			C276.5,137.886,273.981,142.54,273.981,147.718z"/>
		<path fill="#808080" d="M295.811,155.66c1.365,0.84,3.359,1.54,5.458,1.54c3.114,0,4.934-1.645,4.934-4.023
			c0-2.205-1.26-3.464-4.443-4.688c-3.849-1.365-6.228-3.359-6.228-6.683c0-3.674,3.044-6.403,7.627-6.403
			c2.414,0,4.164,0.56,5.213,1.155l-0.84,2.484c-0.77-0.42-2.344-1.12-4.479-1.12c-3.219,0-4.444,1.924-4.444,3.534
			c0,2.204,1.435,3.289,4.688,4.548c3.989,1.54,6.018,3.464,6.018,6.928c0,3.639-2.694,6.823-8.257,6.823
			c-2.274,0-4.758-0.7-6.018-1.54L295.811,155.66z"/>
	</g>
	<path fill-rule="evenodd" clip-rule="evenodd" fill="#A8518A" d="M183.628,193.003c0-0.389,0.07-0.93,0.141-1.291
		c0.2-1.038,0.794-2.167,1.486-2.886c0.378-0.395,1.159-0.994,1.665-1.205c0.365-0.151,0.619-0.265,1.029-0.367
		c1.186-0.298,2.343-0.2,3.402,0.237c1.421,0.589,1.88,1.265,2.896,2.323c0.492,0.509,0.862,1.092,1.656,1.092
		c0.789,0,1.972-1.6,2.78-2.383c1.284-1.237,3.262-1.675,4.966-1.291c1.281,0.286,2.248,0.967,3.078,1.95
		c0.316,0.373,0.627,0.897,0.821,1.362c0.732,1.756,0.678,3.475-0.157,5.176c-0.408,0.833-0.905,1.287-1.502,1.908
		c-0.575,0.6-9.756,10.207-10.043,10.407c-0.289-0.205-9.429-9.77-10.013-10.375c-0.598-0.621-1.108-1.092-1.513-1.902
		C183.917,194.954,183.628,193.976,183.628,193.003L183.628,193.003z M210.601,192.565c-0.078-1.604-0.583-3.188-1.499-4.534
		c-0.622-0.913-1.575-1.831-2.51-2.421c-0.232-0.146-0.395-0.227-0.64-0.351c-1.772-0.93-3.939-1.054-5.866-0.486
		c-0.673,0.194-1.1,0.427-1.667,0.724c-1.267,0.665-2.215,1.93-2.572,2.178c-0.583-0.405-1.708-2.178-4.193-2.891
		c-1.939-0.557-4.066-0.486-5.874,0.454c-1.77,0.918-3.007,2.188-3.899,4.031c-0.356,0.74-0.789,2.178-0.789,3.253
		c0,1.88,0.105,2.437,0.773,4.106l0.349,0.659c0.132,0.238,0.238,0.416,0.386,0.616c0.927,1.275,3.718,4.031,4.934,5.296
		l6.974,7.246c0.554,0.573,0.656,0.821,1.456,0.821c0.643,0,1.605-1.221,2.205-1.843l9.97-10.358
		c0.354-0.368,0.611-0.682,0.908-1.092l0.579-0.957c0.594-1.112,0.916-2.345,0.978-3.593V192.565z"/>
</svg>
