<?xml version="1.0" encoding="utf-8"?>
<!-- Generator: Adobe Illustrator 16.0.0, SVG Export Plug-In . SVG Version: 6.00 Build 0)  -->
<!DOCTYPE svg PUBLIC "-//W3C//DTD SVG 1.0//EN" "http://www.w3.org/TR/2001/REC-SVG-20010904/DTD/svg10.dtd">
<svg version="1.0" id="Layer_1" xmlns="http://www.w3.org/2000/svg" xmlns:xlink="http://www.w3.org/1999/xlink" x="0px" y="0px"
	 width="643.589px" height="397.867px" viewBox="0 0 643.589 397.867" enable-background="new 0 0 643.589 397.867"
	 xml:space="preserve">
<polygon fill-rule="evenodd" clip-rule="evenodd" fill="#FAD6E5" points="643.589,397.867 436.672,0 1.697,0 0,397.867 "/>
<g>
	<path fill-rule="evenodd" clip-rule="evenodd" fill="#FFFFFF" d="M140.018,124.06h389.504c7.78,0,14.144,6.364,14.144,14.144
		v190.047c0,7.781-6.364,14.147-14.144,14.147H140.018c-7.78,0-14.144-6.366-14.144-14.147V138.204
		C125.875,130.424,132.238,124.06,140.018,124.06z"/>
	<g>
		<rect x="190.14" y="153.63" fill-rule="evenodd" clip-rule="evenodd" fill="none" width="288.491" height="134.36"/>
		<path fill="#A8518A" d="M212.594,154.754c1.098-0.225,2.669-0.35,4.167-0.35c2.32,0,3.817,0.424,4.865,1.372
			c0.848,0.749,1.322,1.896,1.322,3.193c0,2.221-1.397,3.692-3.168,4.292v0.075c1.297,0.449,2.071,1.646,2.47,3.393
			c0.549,2.345,0.948,3.967,1.297,4.615h-2.245c-0.274-0.499-0.649-1.921-1.123-4.017c-0.499-2.32-1.397-3.193-3.368-3.268h-2.046
			v7.285h-2.17V154.754z M214.764,162.413h2.221c2.32,0,3.792-1.272,3.792-3.193c0-2.17-1.572-3.118-3.867-3.143
			c-1.048,0-1.796,0.1-2.146,0.199V162.413z"/>
		<path fill="#A8518A" d="M234.724,163.461h-6.537v6.063h7.285v1.821h-9.456V154.53h9.081v1.821h-6.911v5.314h6.537V163.461z"/>
		<path fill="#A8518A" d="M242.208,171.345l-5.489-16.815h2.345l2.62,8.283c0.724,2.27,1.347,4.316,1.796,6.287h0.05
			c0.474-1.946,1.172-4.067,1.921-6.262l2.844-8.308h2.32l-6.013,16.815H242.208z"/>
		<path fill="#A8518A" d="M254.608,154.53v16.815h-2.17V154.53H254.608z"/>
		<path fill="#A8518A" d="M262.093,171.345l-5.489-16.815h2.345l2.62,8.283c0.724,2.27,1.347,4.316,1.796,6.287h0.05
			c0.474-1.946,1.172-4.067,1.921-6.262l2.844-8.308h2.32l-6.013,16.815H262.093z"/>
		<path fill="#A8518A" d="M281.029,163.461h-6.537v6.063h7.285v1.821h-9.456V154.53h9.081v1.821h-6.911v5.314h6.537V163.461z"/>
		<path fill="#A8518A" d="M289.886,154.53h2.17v14.994h7.185v1.821h-9.355V154.53z"/>
		<path fill="#A8518A" d="M304.381,166.056l-1.746,5.289h-2.246l5.713-16.815h2.62l5.738,16.815h-2.32l-1.796-5.289H304.381z
			 M309.895,164.359l-1.646-4.84c-0.375-1.098-0.624-2.096-0.873-3.069h-0.05c-0.25,0.998-0.524,2.021-0.848,3.043l-1.646,4.865
			H309.895z"/>
		<path fill="#A8518A" d="M330.928,163.461h-6.537v6.063h7.285v1.821h-9.456V154.53h9.081v1.821h-6.911v5.314h6.537V163.461z"/>
		<path fill="#A8518A" d="M348.666,163.96c-0.125-2.345-0.274-5.164-0.25-7.26h-0.075c-0.574,1.971-1.272,4.091-2.121,6.387
			l-2.969,8.158h-1.646l-2.719-8.008c-0.798-2.37-1.472-4.541-1.946-6.537h-0.05c-0.05,2.096-0.175,4.915-0.324,7.435l-0.449,7.21
			h-2.071l1.173-16.815h2.769l2.869,8.133c0.699,2.071,1.272,3.917,1.696,5.664h0.075c0.424-1.697,1.023-3.543,1.771-5.664
			l2.994-8.133h2.769l1.048,16.815h-2.121L348.666,163.96z"/>
		<path fill="#A8518A" d="M368.925,162.763c0,5.788-3.518,8.856-7.809,8.856c-4.441,0-7.56-3.443-7.56-8.532
			c0-5.339,3.318-8.832,7.809-8.832C365.957,154.255,368.925,157.773,368.925,162.763z M355.877,163.037
			c0,3.592,1.946,6.811,5.364,6.811c3.443,0,5.389-3.168,5.389-6.985c0-3.343-1.746-6.836-5.364-6.836
			C357.674,156.026,355.877,159.345,355.877,163.037z"/>
		<path fill="#A8518A" d="M383.496,170.796c-0.798,0.399-2.395,0.823-4.44,0.823c-4.74,0-8.308-3.019-8.308-8.532
			c0-5.264,3.568-8.832,8.782-8.832c2.096,0,3.418,0.449,3.992,0.749l-0.524,1.771c-0.823-0.399-1.996-0.698-3.393-0.698
			c-3.942,0-6.562,2.52-6.562,6.936c0,4.116,2.37,6.761,6.461,6.761c1.322,0,2.669-0.274,3.543-0.699L383.496,170.796z"/>
		<path fill="#A8518A" d="M388.387,154.53v16.815h-2.17V154.53H388.387z"/>
		<path fill="#A8518A" d="M406.549,162.763c0,5.788-3.518,8.856-7.809,8.856c-4.441,0-7.56-3.443-7.56-8.532
			c0-5.339,3.318-8.832,7.809-8.832C403.581,154.255,406.549,157.773,406.549,162.763z M393.501,163.037
			c0,3.592,1.946,6.811,5.364,6.811c3.443,0,5.389-3.168,5.389-6.985c0-3.343-1.746-6.836-5.364-6.836
			C395.298,156.026,393.501,159.345,393.501,163.037z M402.508,150.638l-3.168,2.919h-1.796l2.32-2.919H402.508z"/>
		<path fill="#A8518A" d="M409.37,171.345V154.53h2.37l5.389,8.507c1.248,1.971,2.221,3.742,3.019,5.463l0.05-0.025
			c-0.2-2.245-0.25-4.291-0.25-6.911v-7.035h2.046v16.815h-2.196l-5.339-8.532c-1.172-1.871-2.295-3.792-3.144-5.613l-0.075,0.025
			c0.125,2.121,0.175,4.142,0.175,6.936v7.185H409.37z"/>
		<path fill="#A8518A" d="M431.076,154.754c1.322-0.2,2.894-0.35,4.615-0.35c3.119,0,5.339,0.724,6.811,2.096
			c1.497,1.372,2.37,3.318,2.37,6.038c0,2.744-0.848,4.99-2.42,6.536c-1.572,1.572-4.167,2.42-7.435,2.42
			c-1.547,0-2.844-0.075-3.942-0.2V154.754z M433.246,169.624c0.549,0.1,1.347,0.125,2.196,0.125c4.64,0,7.16-2.595,7.16-7.135
			c0.025-3.967-2.22-6.486-6.811-6.486c-1.123,0-1.971,0.1-2.545,0.225V169.624z"/>
		<path fill="#A8518A" d="M456.399,163.461h-6.537v6.063h7.285v1.821h-9.456V154.53h9.081v1.821h-6.911v5.314h6.537V163.461z"/>
		<path fill="#A8518A" d="M228.848,188.411h-6.537v6.063h7.285v1.821h-9.456v-16.815h9.081v1.821h-6.911v5.314h6.537V188.411z"/>
		<path fill="#A8518A" d="M232.116,193.65c0.973,0.599,2.395,1.098,3.892,1.098c2.22,0,3.518-1.173,3.518-2.869
			c0-1.571-0.898-2.47-3.168-3.343c-2.744-0.973-4.441-2.396-4.441-4.766c0-2.619,2.17-4.565,5.439-4.565
			c1.721,0,2.969,0.399,3.717,0.823l-0.599,1.771c-0.549-0.299-1.671-0.798-3.193-0.798c-2.295,0-3.168,1.372-3.168,2.52
			c0,1.571,1.022,2.345,3.343,3.243c2.844,1.098,4.291,2.47,4.291,4.939c0,2.595-1.921,4.865-5.888,4.865
			c-1.622,0-3.393-0.499-4.291-1.098L232.116,193.65z"/>
		<path fill="#A8518A" d="M253.423,188.411h-6.537v6.063h7.285v1.821h-9.456v-16.815h9.081v1.821h-6.911v5.314h6.537V188.411z"/>
		<path fill="#A8518A" d="M275.078,195.546c-0.973,0.349-2.894,0.923-5.164,0.923c-2.545,0-4.641-0.648-6.287-2.221
			c-1.447-1.396-2.345-3.643-2.345-6.262c0.025-5.015,3.468-8.682,9.106-8.682c1.946,0,3.468,0.424,4.191,0.773l-0.524,1.771
			c-0.898-0.398-2.021-0.724-3.717-0.724c-4.091,0-6.761,2.545-6.761,6.762c0,4.266,2.57,6.785,6.486,6.785
			c1.422,0,2.395-0.199,2.894-0.448v-5.015h-3.418v-1.747h5.539V195.546z"/>
		<path fill="#A8518A" d="M278.397,179.704c1.098-0.225,2.669-0.349,4.167-0.349c2.32,0,3.817,0.424,4.865,1.372
			c0.848,0.748,1.322,1.896,1.322,3.193c0,2.22-1.397,3.692-3.168,4.291v0.074c1.297,0.449,2.071,1.647,2.47,3.394
			c0.549,2.345,0.948,3.967,1.297,4.615h-2.245c-0.274-0.499-0.649-1.921-1.123-4.017c-0.499-2.32-1.397-3.193-3.368-3.269h-2.046
			v7.285h-2.17V179.704z M280.568,187.363h2.221c2.32,0,3.792-1.272,3.792-3.193c0-2.17-1.572-3.118-3.867-3.144
			c-1.048,0-1.796,0.1-2.146,0.2V187.363z"/>
		<path fill="#A8518A" d="M294.664,191.005l-1.746,5.289h-2.246l5.713-16.815h2.62l5.738,16.815h-2.32l-1.796-5.289H294.664z
			 M300.178,189.309l-1.646-4.84c-0.375-1.098-0.624-2.096-0.873-3.068h-0.05c-0.25,0.997-0.524,2.021-0.848,3.043l-1.646,4.865
			H300.178z"/>
		<path fill="#A8518A" d="M307.214,196.294v-16.815h2.37l5.389,8.508c1.248,1.971,2.221,3.742,3.019,5.464l0.05-0.025
			c-0.2-2.245-0.25-4.291-0.25-6.91v-7.036h2.046v16.815h-2.196l-5.339-8.532c-1.172-1.871-2.295-3.792-3.144-5.613l-0.075,0.024
			c0.125,2.121,0.175,4.142,0.175,6.937v7.185H307.214z"/>
		<path fill="#A8518A" d="M328.92,179.704c1.322-0.199,2.894-0.349,4.615-0.349c3.119,0,5.339,0.724,6.811,2.096
			c1.497,1.372,2.37,3.317,2.37,6.037c0,2.744-0.848,4.989-2.42,6.536c-1.572,1.572-4.167,2.42-7.435,2.42
			c-1.547,0-2.844-0.074-3.942-0.199V179.704z M331.091,194.573c0.549,0.1,1.347,0.125,2.196,0.125c4.64,0,7.16-2.595,7.16-7.135
			c0.025-3.967-2.22-6.487-6.811-6.487c-1.123,0-1.971,0.101-2.545,0.225V194.573z"/>
		<path fill="#A8518A" d="M350.277,175.663l-3.168,2.919h-1.796l2.32-2.919H350.277z M347.707,179.479v16.815h-2.17v-16.815H347.707
			z"/>
		<path fill="#A8518A" d="M354.219,191.005l-1.746,5.289h-2.246l5.713-16.815h2.62l5.738,16.815h-2.32l-1.796-5.289H354.219z
			 M359.732,189.309l-1.646-4.84c-0.375-1.098-0.624-2.096-0.873-3.068h-0.05c-0.25,0.997-0.524,2.021-0.848,3.043l-1.646,4.865
			H359.732z"/>
		<path fill="#A8518A" d="M383.809,195.746c-0.798,0.399-2.395,0.823-4.44,0.823c-4.74,0-8.308-3.019-8.308-8.532
			c0-5.264,3.568-8.832,8.782-8.832c2.096,0,3.418,0.449,3.992,0.749l-0.524,1.771c-0.823-0.399-1.996-0.699-3.393-0.699
			c-3.942,0-6.562,2.521-6.562,6.936c0,4.117,2.37,6.762,6.461,6.762c1.322,0,2.669-0.274,3.543-0.699L383.809,195.746z"/>
		<path fill="#A8518A" d="M400.375,187.712c0,5.788-3.518,8.856-7.809,8.856c-4.441,0-7.56-3.442-7.56-8.532
			c0-5.339,3.318-8.832,7.809-8.832C397.406,179.205,400.375,182.723,400.375,187.712z M387.327,187.987
			c0,3.593,1.946,6.811,5.364,6.811c3.443,0,5.389-3.168,5.389-6.985c0-3.343-1.747-6.836-5.364-6.836
			C389.124,180.976,387.327,184.294,387.327,187.987z"/>
		<path fill="#A8518A" d="M403.195,196.294v-16.815h2.37l5.389,8.508c1.248,1.971,2.221,3.742,3.019,5.464l0.05-0.025
			c-0.2-2.245-0.25-4.291-0.25-6.91v-7.036h2.046v16.815h-2.196l-5.339-8.532c-1.172-1.871-2.295-3.792-3.144-5.613l-0.075,0.024
			c0.125,2.121,0.175,4.142,0.175,6.937v7.185H403.195z"/>
		<path fill="#A8518A" d="M427.072,181.326h-5.114v-1.847h12.449v1.847h-5.14v14.969h-2.195V181.326z"/>
		<path fill="#A8518A" d="M438.449,179.479v9.955c0,3.767,1.672,5.363,3.917,5.363c2.495,0,4.091-1.646,4.091-5.363v-9.955h2.196
			v9.805c0,5.165-2.72,7.285-6.362,7.285c-3.443,0-6.038-1.971-6.038-7.185v-9.905H438.449z"/>
		<path fill="#A8518A" d="M249.98,221.245l-5.489-16.815h2.345l2.62,8.283c0.724,2.271,1.347,4.316,1.796,6.287h0.05
			c0.474-1.946,1.172-4.066,1.921-6.262l2.844-8.309h2.32l-6.013,16.815H249.98z"/>
		<path fill="#A8518A" d="M262.38,204.429v16.815h-2.17v-16.815H262.38z"/>
		<path fill="#A8518A" d="M266.172,204.654c1.322-0.199,2.894-0.349,4.615-0.349c3.119,0,5.339,0.724,6.811,2.096
			c1.497,1.372,2.37,3.317,2.37,6.037c0,2.744-0.848,4.989-2.42,6.536c-1.572,1.572-4.167,2.42-7.435,2.42
			c-1.547,0-2.844-0.074-3.942-0.199V204.654z M268.343,219.523c0.549,0.1,1.347,0.125,2.196,0.125c4.64,0,7.16-2.595,7.16-7.135
			c0.025-3.967-2.22-6.487-6.811-6.487c-1.123,0-1.971,0.101-2.545,0.225V219.523z"/>
		<path fill="#A8518A" d="M291.496,213.361h-6.537v6.063h7.285v1.821h-9.456v-16.815h9.081v1.821h-6.911v5.314h6.537V213.361z"/>
		<path fill="#A8518A" d="M309.434,212.663c0,5.788-3.518,8.856-7.809,8.856c-4.441,0-7.56-3.442-7.56-8.532
			c0-5.339,3.318-8.832,7.809-8.832C306.465,204.155,309.434,207.672,309.434,212.663z M296.386,212.937
			c0,3.593,1.946,6.811,5.364,6.811c3.443,0,5.389-3.168,5.389-6.985c0-3.343-1.747-6.836-5.364-6.836
			C298.182,205.926,296.386,209.245,296.386,212.937z"/>
		<path fill="#A8518A" d="M317.543,204.654c1.322-0.199,2.894-0.349,4.615-0.349c3.119,0,5.339,0.724,6.811,2.096
			c1.497,1.372,2.37,3.317,2.37,6.037c0,2.744-0.848,4.989-2.42,6.536c-1.572,1.572-4.167,2.42-7.435,2.42
			c-1.547,0-2.844-0.074-3.942-0.199V204.654z M319.713,219.523c0.549,0.1,1.347,0.125,2.196,0.125c4.64,0,7.16-2.595,7.16-7.135
			c0.025-3.967-2.22-6.487-6.811-6.487c-1.123,0-1.971,0.101-2.545,0.225V219.523z"/>
		<path fill="#A8518A" d="M342.866,213.361h-6.537v6.063h7.285v1.821h-9.456v-16.815h9.081v1.821h-6.911v5.314h6.537V213.361z"/>
		<path fill="#A8518A" d="M351.723,204.654c0.948-0.199,2.445-0.349,3.967-0.349c2.17,0,3.567,0.374,4.615,1.222
			c0.874,0.649,1.397,1.647,1.397,2.97c0,1.621-1.073,3.043-2.844,3.691v0.051c1.597,0.398,3.468,1.721,3.468,4.216
			c0,1.447-0.574,2.545-1.422,3.368c-1.173,1.072-3.069,1.571-5.813,1.571c-1.497,0-2.645-0.1-3.368-0.199V204.654z M353.894,211.54
			h1.971c2.295,0,3.642-1.197,3.642-2.819c0-1.971-1.497-2.744-3.692-2.744c-0.998,0-1.571,0.075-1.921,0.15V211.54z
			 M353.894,219.598c0.424,0.075,1.048,0.1,1.821,0.1c2.246,0,4.316-0.823,4.316-3.269c0-2.295-1.971-3.243-4.341-3.243h-1.796
			V219.598z"/>
		<path fill="#A8518A" d="M379.616,212.663c0,5.788-3.518,8.856-7.809,8.856c-4.441,0-7.56-3.442-7.56-8.532
			c0-5.339,3.318-8.832,7.809-8.832C376.647,204.155,379.616,207.672,379.616,212.663z M366.568,212.937
			c0,3.593,1.946,6.811,5.364,6.811c3.443,0,5.389-3.168,5.389-6.985c0-3.343-1.746-6.836-5.364-6.836
			C368.364,205.926,366.568,209.245,366.568,212.937z"/>
		<path fill="#A8518A" d="M382.436,204.654c1.322-0.199,2.894-0.349,4.615-0.349c3.119,0,5.339,0.724,6.811,2.096
			c1.497,1.372,2.37,3.317,2.37,6.037c0,2.744-0.848,4.989-2.42,6.536c-1.572,1.572-4.167,2.42-7.435,2.42
			c-1.547,0-2.844-0.074-3.942-0.199V204.654z M384.606,219.523c0.549,0.1,1.347,0.125,2.196,0.125c4.64,0,7.16-2.595,7.16-7.135
			c0.025-3.967-2.22-6.487-6.811-6.487c-1.123,0-1.971,0.101-2.545,0.225V219.523z"/>
		<path fill="#A8518A" d="M401.422,215.956l-1.746,5.289h-2.246l5.713-16.815h2.62l5.738,16.815h-2.32l-1.796-5.289H401.422z
			 M406.936,214.259l-1.646-4.84c-0.375-1.098-0.624-2.096-0.873-3.068h-0.05c-0.25,0.997-0.524,2.021-0.848,3.043l-1.646,4.865
			H406.936z"/>
		<path fill="#A8518A" d="M413.673,218.6c0.973,0.599,2.395,1.098,3.892,1.098c2.22,0,3.518-1.173,3.518-2.869
			c0-1.571-0.898-2.47-3.168-3.343c-2.744-0.973-4.441-2.396-4.441-4.766c0-2.619,2.17-4.565,5.439-4.565
			c1.721,0,2.969,0.399,3.717,0.823l-0.599,1.771c-0.549-0.299-1.671-0.798-3.193-0.798c-2.295,0-3.168,1.372-3.168,2.52
			c0,1.571,1.023,2.345,3.343,3.243c2.844,1.098,4.291,2.47,4.291,4.939c0,2.595-1.921,4.865-5.888,4.865
			c-1.622,0-3.393-0.499-4.291-1.098L413.673,218.6z"/>
	</g>
	<path fill-rule="evenodd" clip-rule="evenodd" fill="#A8518A" d="M305.857,310.05v-27.078c0-2.624,2.462-4.638,5.496-4.638h45.44
		c2.7,0,5.133,2.152,5.133,4.45v27.452c0,0.746-0.271,1.38-0.555,1.852c-1.07,1.754-2.618,2.599-4.943,2.599h-45.076
		C308.248,314.687,305.857,312.601,305.857,310.05L305.857,310.05z M373.471,289.648l7.145-1.114v15.952l-7.145-1.112V289.648
		L373.471,289.648z M366.323,292.061h2.932v8.901h-2.932V292.061L366.323,292.061z M301.459,285.198h-6.23v-6.863h7.878
		C301.932,280.114,301.459,282.222,301.459,285.198L301.459,285.198z M291.016,277.585v8.35c0,1.836,1.671,3.526,3.481,3.526h6.962
		v17.99c0,4.962,1.308,8.601,5.373,10.518c1.249,0.584,2.585,0.982,4.338,0.982h45.441c6.004,0,9.711-4.386,9.711-10.762v-2.965
		h2.932c0.627,2.721,2.54,2.16,7.641,3.021c1.417,0.236,3.147,0.415,4.636,0.691c1.563,0.284,3.297,0.023,3.297-1.859v-21.144
		c0-1.688-1.528-2.185-3.139-1.883c-1.567,0.291-3.002,0.421-4.635,0.69c-1.61,0.268-2.993,0.463-4.605,0.721
		c-2.132,0.342-2.724,0.286-3.194,2.324h-2.932c0-3.825,0.236-7.739-2.514-10.615c-1.689-1.771-3.853-3.103-7.197-3.103h-61.565
		C292.981,274.07,291.016,275.563,291.016,277.585z"/>
</g>
</svg>
