<?xml version="1.0" encoding="utf-8"?>
<!-- Generator: Adobe Illustrator 16.0.0, SVG Export Plug-In . SVG Version: 6.00 Build 0)  -->
<!DOCTYPE svg PUBLIC "-//W3C//DTD SVG 1.0//EN" "http://www.w3.org/TR/2001/REC-SVG-20010904/DTD/svg10.dtd">
<svg version="1.0" id="Layer_1" xmlns="http://www.w3.org/2000/svg" xmlns:xlink="http://www.w3.org/1999/xlink" x="0px" y="0px"
	 width="150.585px" height="150.265px" viewBox="0 0 150.585 150.265" enable-background="new 0 0 150.585 150.265"
	 xml:space="preserve">
<g>
	<path fill-rule="evenodd" clip-rule="evenodd" fill="#000000" d="M75.284,90.164c8.309,0,15.072-6.732,15.072-15.041
		c0-3.269-1.06-6.296-2.841-8.763c-2.743-3.785-7.195-6.269-12.231-6.269c-5.018,0-9.479,2.466-12.213,6.269
		c-1.794,2.467-2.845,5.494-2.858,8.763C60.212,83.432,66.975,90.164,75.284,90.164z"/>
	<polygon fill-rule="evenodd" clip-rule="evenodd" fill="#000000" points="108.201,56.726 108.201,42.246 106.305,42.246
		93.677,42.291 93.735,56.77 	"/>
	<path fill-rule="evenodd" clip-rule="evenodd" fill="#000000" d="M75.284,0C33.777,0,0,33.706,0,75.124
		c0,41.436,33.777,75.141,75.284,75.141c41.52,0,75.301-33.706,75.301-75.141C150.585,33.706,116.804,0,75.284,0L75.284,0z
		 M118.108,66.361v34.988c0,9.11-7.422,16.51-16.555,16.51H49.018c-9.128,0-16.546-7.4-16.546-16.51V48.925
		c0-9.11,7.418-16.519,16.546-16.519h52.536c9.132,0,16.555,7.409,16.555,16.519V66.361z"/>
	<path fill-rule="evenodd" clip-rule="evenodd" fill="#000000" d="M98.713,75.124c0,12.886-10.499,23.376-23.429,23.376
		c-12.913,0-23.407-10.49-23.407-23.376c0-3.09,0.619-6.056,1.714-8.763H40.812v34.988c0,4.523,3.669,8.175,8.206,8.175h52.536
		c4.528,0,8.202-3.651,8.202-8.175V66.361H96.977C98.072,69.068,98.713,72.034,98.713,75.124z"/>
</g>
<g>
</g>
<g>
</g>
<g>
</g>
<g>
</g>
<g>
</g>
<g>
</g>
<g>
</g>
<g>
</g>
<g>
</g>
<g>
</g>
<g>
</g>
<g>
</g>
<g>
</g>
<g>
</g>
<g>
</g>
</svg>
