<?xml version="1.0" encoding="utf-8"?>
<!-- Generator: Adobe Illustrator 16.0.0, SVG Export Plug-In . SVG Version: 6.00 Build 0)  -->
<!DOCTYPE svg PUBLIC "-//W3C//DTD SVG 1.0//EN" "http://www.w3.org/TR/2001/REC-SVG-20010904/DTD/svg10.dtd">
<svg version="1.0" id="Layer_1" xmlns="http://www.w3.org/2000/svg" xmlns:xlink="http://www.w3.org/1999/xlink" x="0px" y="0px"
	 width="226.92px" height="127.457px" viewBox="0 0 226.92 127.457" enable-background="new 0 0 226.92 127.457"
	 xml:space="preserve">
<g>
	<g>
		<g>
			<path fill="#808080" d="M0,74.428c0-0.617,0.478-1.141,1.143-1.141h4.188c0.621,0,1.143,0.523,1.143,1.141v12.847l11.991-13.512
				c0.191-0.238,0.478-0.476,0.904-0.476h4.761c0.904,0,1.378,0.999,0.757,1.712L12.469,88.99l13.324,15.939
				c0.474,0.617,0.092,1.668-0.856,1.668H19.75c-0.478,0-0.764-0.19-0.859-0.334L6.473,90.94v14.512c0,0.62-0.522,1.146-1.143,1.146
				H1.143c-0.665,0-1.143-0.525-1.143-1.146V74.428z"/>
		</g>
		<g>
			<path fill="#808080" d="M42.155,105.356l14.801-32.021c0.14-0.287,0.378-0.523,0.808-0.523h0.475
				c0.474,0,0.665,0.236,0.812,0.523l14.654,32.021c0.283,0.621-0.096,1.241-0.812,1.241h-4.137c-0.713,0-1.047-0.286-1.381-0.955
				l-2.33-5.136h-14.23l-2.33,5.136c-0.19,0.478-0.617,0.955-1.381,0.955h-4.141C42.25,106.598,41.872,105.978,42.155,105.356z
				 M62.713,95.224l-4.758-10.469h-0.146l-4.662,10.469H62.713z"/>
		</g>
		<g>
			<path fill-rule="evenodd" clip-rule="evenodd" fill="#808080" d="M135.212,103.769c0,0.489,0.378,0.93,0.903,0.93h5.613
				c0.475,0,0.904-0.44,0.904-0.93V93.28h4.992c5.805,0,10.609-4.951,10.609-11.031c0-5.932-4.805-10.834-10.657-10.834h-11.462
				c-0.525,0-0.903,0.441-0.903,0.932V103.769L135.212,103.769z M142.633,86.121v-7.502h4.518c2.043,0,3.755,1.573,3.755,3.63
				c0,2.204-1.712,3.872-3.755,3.872H142.633z"/>
		</g>
		<g>
			<path fill="#808080" d="M173.369,105.356l14.802-32.021c0.14-0.287,0.378-0.523,0.808-0.523h0.475
				c0.474,0,0.664,0.236,0.812,0.523l14.654,32.021c0.282,0.621-0.096,1.241-0.812,1.241h-4.137c-0.713,0-1.047-0.286-1.382-0.955
				l-2.329-5.136h-14.231l-2.329,5.136c-0.191,0.478-0.617,0.955-1.381,0.955h-4.141
				C173.465,106.598,173.087,105.978,173.369,105.356z M193.928,95.224l-4.758-10.469h-0.146l-4.662,10.469H193.928z"/>
		</g>
		<g>
			<path fill="#808080" d="M220.683,74.19c0-0.476,0.433-0.903,0.907-0.903h4.427c0.474,0,0.903,0.428,0.903,0.903v31.504
				c0,0.474-0.43,0.903-0.903,0.903h-4.427c-0.475,0-0.907-0.43-0.907-0.903V74.19z"/>
		</g>
		<g>
			<path fill-rule="evenodd" clip-rule="evenodd" fill="#808080" d="M120.48,103.824c0,0.467-0.419,0.893-0.889,0.893h-5.584
				c-0.515,0-0.889-0.426-0.889-0.893V85.423h-0.049l-3.67,3.685v0.011l-0.933,0.93l-2.938,2.957l-0.111,0.089
				c-0.176,0.146-0.499,0.22-0.812,0.209c-0.261-0.011-0.511-0.077-0.672-0.209l-0.14-0.125l-7.513-7.546h-0.048v18.401
				c0,0.467-0.375,0.893-0.889,0.893h-5.584c-0.471,0-0.889-0.426-0.889-0.893l-0.049-31.563c0-0.469,0.423-0.844,0.894-0.844h1.168
				l13.791,12.36l13.787-12.36h1.172c0.47,0,0.893,0.375,0.893,0.844L120.48,103.824z"/>
		</g>
	</g>
	<g>
		<path fill-rule="evenodd" clip-rule="evenodd" fill="#A8518A" d="M113.441,0c20.672,0,38.717,11.229,48.375,27.918l-25.885,14.944
			l-21.204-12.24l-0.313-0.181c-0.323-0.186-0.599-0.251-0.974-0.265c-0.271-0.005-0.639,0.076-0.962,0.262l-0.319,0.186
			L90.959,42.862L65.074,27.918C74.729,11.229,92.773,0,113.441,0L113.441,0z M130.777,45.836L130.777,45.836l-16.332-9.431
			c-0.335-0.192-0.489-0.251-1.004-0.284c-0.367,0.034-0.617,0.065-0.926,0.244l-16.406,9.471l17.332,10.007L130.777,45.836z"/>
	</g>
	<g>
		<path fill="#808080" d="M34.069,117.365c-0.088-0.191,0.029-0.386,0.25-0.386h1.506c0.132,0,0.221,0.088,0.25,0.162l2.833,6.348
			h0.103l2.832-6.348c0.029-0.074,0.118-0.162,0.25-0.162h1.506c0.221,0,0.338,0.194,0.25,0.386l-4.57,9.93
			c-0.044,0.089-0.117,0.161-0.253,0.161h-0.147c-0.132,0-0.206-0.072-0.249-0.161L34.069,117.365z"/>
		<path fill="#808080" d="M51.255,117.263c0-0.15,0.132-0.283,0.278-0.283h1.375c0.146,0,0.279,0.133,0.279,0.283v9.764
			c0,0.15-0.133,0.283-0.279,0.283h-1.375c-0.146,0-0.278-0.133-0.278-0.283V117.263z"/>
		<path fill="#808080" d="M61.934,117.263c0-0.15,0.117-0.283,0.265-0.283h3.497c2.848,0,5.177,2.318,5.177,5.15
			c0,2.861-2.329,5.18-5.177,5.18h-3.497c-0.147,0-0.265-0.133-0.265-0.283V117.263z M65.516,125.51c1.922,0,3.321-1.448,3.321-3.38
			c0-1.918-1.399-3.365-3.321-3.365h-1.679v6.745H65.516z"/>
		<path fill="#808080" d="M78.881,117.263c0-0.15,0.117-0.283,0.279-0.283h6.002c0.166,0,0.283,0.133,0.283,0.283v1.208
			c0,0.147-0.117,0.279-0.283,0.279h-4.364v2.421h3.645c0.146,0,0.279,0.133,0.279,0.283v1.22c0,0.165-0.133,0.282-0.279,0.282
			h-3.645v2.583h4.364c0.166,0,0.283,0.132,0.283,0.279v1.208c0,0.15-0.117,0.283-0.283,0.283H79.16
			c-0.162,0-0.279-0.133-0.279-0.283V117.263z"/>
		<path fill="#808080" d="M98.174,116.833c2.954,0,5.313,2.377,5.313,5.326c0,2.95-2.358,5.297-5.313,5.297
			c-2.949,0-5.297-2.347-5.297-5.297C92.877,119.21,95.225,116.833,98.174,116.833z M98.174,125.539c1.859,0,3.395-1.521,3.395-3.38
			s-1.535-3.409-3.395-3.409c-1.858,0-3.379,1.55-3.379,3.409S96.315,125.539,98.174,125.539z"/>
		<path fill="#808080" d="M117.17,122.335l-3.361-4.926c-0.117-0.191,0-0.43,0.236-0.43h1.506c0.117,0,0.19,0.073,0.234,0.133
			l2.359,3.394l2.357-3.394c0.045-0.06,0.118-0.133,0.239-0.133h1.518c0.235,0,0.356,0.238,0.235,0.43l-3.406,4.912v4.705
			c0,0.15-0.132,0.283-0.279,0.283h-1.355c-0.165,0-0.283-0.133-0.283-0.283V122.335z"/>
		<path fill="#808080" d="M136.832,117.263c0-0.15,0.117-0.283,0.279-0.283h6.006c0.162,0,0.279,0.133,0.279,0.283v1.208
			c0,0.147-0.117,0.279-0.279,0.279h-4.367v2.777h3.644c0.147,0,0.279,0.132,0.279,0.279v1.208c0,0.147-0.132,0.283-0.279,0.283
			h-3.644v3.729c0,0.15-0.133,0.283-0.283,0.283h-1.355c-0.162,0-0.279-0.133-0.279-0.283V117.263z"/>
		<path fill="#808080" d="M155.77,116.833c2.953,0,5.313,2.377,5.313,5.326c0,2.95-2.359,5.297-5.313,5.297
			c-2.95,0-5.298-2.347-5.298-5.297C150.472,119.21,152.819,116.833,155.77,116.833z M155.77,125.539
			c1.858,0,3.395-1.521,3.395-3.38s-1.536-3.409-3.395-3.409c-1.859,0-3.38,1.55-3.38,3.409S153.91,125.539,155.77,125.539z"/>
		<path fill="#808080" d="M170.361,118.75h-2.26c-0.162,0-0.283-0.132-0.283-0.279v-1.208c0-0.15,0.121-0.283,0.283-0.283h6.447
			c0.162,0,0.279,0.133,0.279,0.283v1.208c0,0.147-0.117,0.279-0.279,0.279h-2.256v8.276c0,0.15-0.132,0.283-0.282,0.283h-1.37
			c-0.147,0-0.279-0.133-0.279-0.283V118.75z"/>
		<path fill="#808080" d="M186.878,116.833c2.953,0,5.312,2.377,5.312,5.326c0,2.95-2.358,5.297-5.312,5.297
			c-2.95,0-5.298-2.347-5.298-5.297C181.58,119.21,183.928,116.833,186.878,116.833z M186.878,125.539
			c1.858,0,3.394-1.521,3.394-3.38s-1.535-3.409-3.394-3.409c-1.859,0-3.38,1.55-3.38,3.409S185.019,125.539,186.878,125.539z"/>
	</g>
</g>
<g>
</g>
<g>
</g>
<g>
</g>
<g>
</g>
<g>
</g>
<g>
</g>
<g>
</g>
<g>
</g>
<g>
</g>
<g>
</g>
<g>
</g>
<g>
</g>
<g>
</g>
<g>
</g>
<g>
</g>
</svg>
