<svg version="1.1" id="Layer_1" xmlns="http://www.w3.org/2000/svg" xmlns:xlink="http://www.w3.org/1999/xlink" x="0px" y="0px"
	 width="590.23px" height="324.737px" viewBox="100.885 115.285 590.23 324.737"
	 enable-background="new 100.885 115.285 590.23 324.737" xml:space="preserve">
<g id="Capa_x0020_1">
	<g id="_1119650688">
		<path fill="#808080" d="M100.885,383.131c0,1.588,1.247,2.947,2.948,2.947h14.4c1.616,0,2.948-1.359,2.948-2.947v-36.652
			l28.432,38.607c0.255,0.511,1.36,0.992,2.211,0.992h16.979c2.324,0,3.685-2.721,2.324-4.563l-31.351-40.904l28.771-36.085
			c1.361-1.842,0.142-4.563-2.211-4.563h-15.505c-0.737,0-1.843,0.624-2.325,1.247l-27.326,34.128v-32.399
			c0-1.616-1.333-2.976-2.948-2.976h-14.4c-1.701,0-2.948,1.36-2.948,2.976V383.131z"/>
		<path fill="#808080" d="M213.279,386.078h13.549c2.466,0,3.799-1.474,4.422-2.947l4.422-9.836h33.477l4.422,9.723
			c1.105,2.324,2.098,3.061,4.309,3.061h13.663c1.842,0,2.806-1.587,2.069-3.203l-38.495-82.799
			c-0.369-0.737-1.219-1.333-2.098-1.333h-1.219c-0.879,0-1.729,0.595-2.098,1.333l-38.495,82.799
			C210.473,384.491,211.436,386.078,213.279,386.078z M243.071,356.57l9.213-20.324h0.142l9.326,20.324H243.071z"/>
		<path fill="#808080" d="M452.296,383.641c0,1.248,0.964,2.41,2.324,2.41h14.514c1.247,0,2.353-1.162,2.353-2.41v-27.127h12.898
			c15.023,0,27.438-12.813,27.438-28.517c0-15.364-12.415-28.035-27.553-28.035h-29.65c-1.36,0-2.324,1.134-2.324,2.409V383.641z
			 M471.486,338.003v-19.389h11.679c5.301,0,9.724,4.054,9.724,9.383c0,5.697-4.423,10.006-9.724,10.006H471.486z"/>
		<path fill="#808080" d="M552.643,386.078h13.521c2.466,0,3.826-1.474,4.422-2.947l4.422-9.836h33.478l4.422,9.723
			c1.105,2.324,2.098,3.061,4.309,3.061h13.663c1.843,0,2.834-1.587,2.098-3.203l-38.523-82.799
			c-0.368-0.737-1.219-1.333-2.098-1.333h-1.219c-0.85,0-1.729,0.595-2.098,1.333l-38.494,82.799
			C549.808,384.491,550.771,386.078,552.643,386.078z M582.406,356.57l9.213-20.324h0.142l9.354,20.324H582.406z"/>
		<path fill="#808080" d="M671.669,383.754c0,1.219,1.105,2.324,2.354,2.324h14.739c1.248,0,2.354-1.105,2.354-2.324v-81.439
			c0-1.247-1.105-2.353-2.354-2.353h-14.739c-1.248,0-2.354,1.105-2.354,2.353V383.754z"/>
		<path fill="#808080" d="M414.198,383.783c0,1.219-1.077,2.295-2.296,2.295h-14.429c-1.36,0-2.324-1.076-2.324-2.295v-47.594
			h-0.113l-9.496,9.523v0.029l-2.409,2.409l-7.597,7.653l-0.284,0.227c-0.453,0.369-1.304,0.567-2.098,0.539
			c-0.68-0.028-1.332-0.199-1.757-0.539l-0.341-0.312l-19.445-19.53h-0.113v47.594c0,1.219-0.964,2.295-2.296,2.295h-14.457
			c-1.19,0-2.296-1.076-2.296-2.295l-0.113-81.638c0-1.219,1.077-2.183,2.296-2.183h3.033l35.66,31.975l35.659-31.975h3.033
			c1.219,0,2.296,0.963,2.296,2.183L414.198,383.783z"/>
	</g>
	<path fill="#A8518A" d="M396,115.285c53.461,0,100.12,29.027,125.093,72.198l-66.954,38.636l-54.822-31.663l-0.794-0.454
		c-0.85-0.481-1.559-0.652-2.522-0.68c-0.709-0.028-1.673,0.199-2.494,0.68l-0.822,0.482l-54.822,31.635l-66.954-38.636
		C295.88,144.312,342.539,115.285,396,115.285z M440.815,233.802L440.815,233.802l-42.236-24.378
		c-0.85-0.482-1.247-0.652-2.579-0.737c-0.964,0.085-1.588,0.17-2.409,0.624l-42.406,24.492L396,259.682L440.815,233.802z"/>
	<path fill="#808080" d="M202.479,439.597c0.114,0.255,0.34,0.426,0.652,0.426h0.368c0.312,0,0.539-0.171,0.652-0.426l11.99-25.653
		c0.227-0.51-0.085-0.992-0.652-0.992h-5.074c-0.312,0-0.567,0.227-0.652,0.396l-6.293,13.947h-0.227l-6.293-13.947
		c-0.085-0.17-0.34-0.396-0.652-0.396h-5.074c-0.567,0-0.878,0.482-0.652,0.992L202.479,439.597z M234.964,438.917
		c0,0.396,0.34,0.736,0.708,0.736h4.592c0.368,0,0.708-0.34,0.708-0.736V413.66c0-0.369-0.34-0.709-0.708-0.709h-4.592
		c-0.369,0-0.708,0.34-0.708,0.709V438.917z M263.225,438.917c0,0.396,0.312,0.736,0.68,0.736h9.326
		c7.342,0,13.379-6.009,13.379-13.407c0-7.314-6.038-13.295-13.379-13.295h-9.326c-0.368,0-0.68,0.34-0.68,0.709V438.917z
		 M269.178,434.013v-15.478h3.657c4.309,0,7.455,3.401,7.455,7.711c0,4.365-3.146,7.767-7.455,7.767H269.178z M306.964,438.917
		c0,0.396,0.283,0.736,0.709,0.736h15.788c0.426,0,0.737-0.34,0.737-0.736v-4.167c0-0.369-0.312-0.709-0.737-0.709h-10.545v-5.159
		h8.703c0.368,0,0.708-0.312,0.708-0.709v-4.167c0-0.396-0.34-0.736-0.708-0.736h-8.703v-4.734h10.545
		c0.426,0,0.737-0.34,0.737-0.709v-4.166c0-0.369-0.312-0.709-0.737-0.709h-15.788c-0.426,0-0.709,0.34-0.709,0.709V438.917z
		 M343.049,426.331c0,7.625,6.066,13.691,13.691,13.691s13.748-6.066,13.748-13.691c0-7.626-6.123-13.776-13.748-13.776
		S343.049,418.705,343.049,426.331z M349.144,426.331c0-4.195,3.458-7.683,7.597-7.683c4.195,0,7.625,3.487,7.625,7.683
		c0,4.167-3.43,7.597-7.625,7.597C352.602,433.928,349.144,430.498,349.144,426.331z M405.326,438.917
		c0,0.396,0.312,0.736,0.709,0.736h4.535c0.396,0,0.736-0.34,0.736-0.736v-12.161l8.562-12.699c0.283-0.51,0-1.105-0.624-1.105
		h-4.961c-0.34,0-0.481,0.17-0.595,0.34l-5.329,7.824l-5.301-7.824c-0.113-0.17-0.284-0.34-0.596-0.34h-4.961
		c-0.623,0-0.906,0.596-0.623,1.105l8.447,12.728V438.917z M456.633,438.917c0,0.396,0.313,0.736,0.737,0.736h4.507
		c0.369,0,0.709-0.34,0.709-0.736v-9.27h8.702c0.368,0,0.737-0.341,0.737-0.709v-4.167c0-0.396-0.369-0.737-0.737-0.737h-8.702
		v-5.499h10.573c0.425,0,0.737-0.34,0.737-0.709v-4.166c0-0.369-0.313-0.709-0.737-0.709H457.37c-0.425,0-0.737,0.34-0.737,0.709
		V438.917z M491.868,426.331c0,7.625,6.065,13.691,13.69,13.691c7.626,0,13.72-6.066,13.72-13.691
		c0-7.626-6.094-13.776-13.72-13.776C497.934,412.555,491.868,418.705,491.868,426.331z M497.962,426.331
		c0-4.195,3.431-7.683,7.597-7.683c4.195,0,7.626,3.487,7.626,7.683c0,4.167-3.431,7.597-7.626,7.597
		C501.393,433.928,497.962,430.498,497.962,426.331z M542.863,438.917c0,0.396,0.34,0.736,0.736,0.736h4.564
		c0.396,0,0.736-0.34,0.736-0.736v-20.382h5.443c0.425,0,0.736-0.34,0.736-0.709v-4.166c0-0.369-0.312-0.709-0.736-0.709h-16.923
		c-0.426,0-0.737,0.34-0.737,0.709v4.166c0,0.369,0.312,0.709,0.737,0.709h5.442V438.917z M572.485,426.331
		c0,7.625,6.065,13.691,13.691,13.691c7.625,0,13.748-6.066,13.748-13.691c0-7.626-6.123-13.776-13.748-13.776
		C578.551,412.555,572.485,418.705,572.485,426.331z M578.579,426.331c0-4.195,3.431-7.683,7.598-7.683
		c4.195,0,7.625,3.487,7.625,7.683c0,4.167-3.43,7.597-7.625,7.597C582.01,433.928,578.579,430.498,578.579,426.331z"/>
</g>
</svg>
