<svg xmlns="http://www.w3.org/2000/svg" xml:space="preserve" width="279.4mm" height="215.9mm" version="1.1" style="shape-rendering:geometricPrecision; text-rendering:geometricPrecision; image-rendering:optimizeQuality; fill-rule:evenodd; clip-rule:evenodd"
viewBox="0 0 27940 21590"
 xmlns:xlink="http://www.w3.org/1999/xlink">
 <defs>
  <style type="text/css">
   <![CDATA[
    .fil2 {fill:#A8518A}
    .fil1 {fill:gray}
    .fil0 {fill:gray;fill-rule:nonzero}
   ]]>
  </style>
 </defs>
 <g id="Capa_x0020_1">
  <metadata id="CorelCorpID_0Corel-Layer"/>
  <g id="_1119650688">
   <path class="fil0" d="M3559 13516c0,56 44,104 104,104l508 0c57,0 104,-48 104,-104l0 -1293 1003 1362c9,18 48,35 78,35l599 0c82,0 130,-96 82,-161l-1106 -1443 1015 -1273c48,-65 5,-161 -78,-161l-547 0c-26,0 -65,22 -82,44l-964 1204 0 -1143c0,-57 -47,-105 -104,-105l-508 0c-60,0 -104,48 -104,105l0 2829z"/>
   <path class="fil0" d="M7524 13620l478 0c87,0 134,-52 156,-104l156 -347 1181 0 156 343c39,82 74,108 152,108l482 0c65,0 99,-56 73,-113l-1358 -2921c-13,-26 -43,-47 -74,-47l-43 0c-31,0 -61,21 -74,47l-1358 2921c-26,57 8,113 73,113zm1051 -1041l325 -717 5 0 329 717 -659 0z"/>
   <path class="fil0" d="M15956 13534c0,44 34,85 82,85l512 0c44,0 83,-41 83,-85l0 -957 455 0c530,0 968,-452 968,-1006 0,-542 -438,-989 -972,-989l-1046 0c-48,0 -82,40 -82,85l0 2867zm677 -1610l0 -684 412 0c187,0 343,143 343,331 0,201 -156,353 -343,353l-412 0z"/>
   <path class="fil0" d="M19496 13620l477 0c87,0 135,-52 156,-104l156 -347 1181 0 156 343c39,82 74,108 152,108l482 0c65,0 100,-56 74,-113l-1359 -2921c-13,-26 -43,-47 -74,-47l-43 0c-30,0 -61,21 -74,47l-1358 2921c-26,57 8,113 74,113zm1050 -1041l325 -717 5 0 330 717 -660 0z"/>
   <path class="fil0" d="M23695 13538c0,43 39,82 83,82l520 0c44,0 83,-39 83,-82l0 -2873c0,-44 -39,-83 -83,-83l-520 0c-44,0 -83,39 -83,83l0 2873z"/>
   <path class="fil1" d="M14612 13539c0,43 -38,81 -81,81l-509 0c-48,0 -82,-38 -82,-81l0 -1679c0,0 -4,0 -4,0l-335 336 0 1 -85 85 -268 270 -10 8c-16,13 -46,20 -74,19 -24,-1 -47,-7 -62,-19l-12 -11 -686 -689c0,0 -4,0 -4,0l0 1679c0,43 -34,81 -81,81l-510 0c-42,0 -81,-38 -81,-81l-4 -2880c0,-43 38,-77 81,-77l107 0 1258 1128 1258 -1128 107 0c43,0 81,34 81,77l-4 2880z"/>
  </g>
  <path class="fil2" d="M13970 4067c1886,0 3532,1024 4413,2547l-2362 1363 -1934 -1117 -28 -16c-30,-17 -55,-23 -89,-24 -25,-1 -59,7 -88,24l-29 17 -1934 1116 -2362 -1363c881,-1523 2527,-2547 4413,-2547zm1581 4181l0 0 -1490 -860c-30,-17 -44,-23 -91,-26 -34,3 -56,6 -85,22l-1496 864 1581 913 1581 -913z"/>
  <path class="fil0" d="M7143 15508c4,9 12,15 23,15l13 0c11,0 19,-6 23,-15l423 -905c8,-18 -3,-35 -23,-35l-179 0c-11,0 -20,8 -23,14l-222 492 -8 0 -222 -492c-3,-6 -12,-14 -23,-14l-179 0c-20,0 -31,17 -23,35l420 905zm1146 -24c0,14 12,26 25,26l162 0c13,0 25,-12 25,-26l0 -891c0,-13 -12,-25 -25,-25l-162 0c-13,0 -25,12 -25,25l0 891zm997 0c0,14 11,26 24,26l329 0c259,0 472,-212 472,-473 0,-258 -213,-469 -472,-469l-329 0c-13,0 -24,12 -24,25l0 891zm210 -173l0 -546 129 0c152,0 263,120 263,272 0,154 -111,274 -263,274l-129 0zm1333 173c0,14 10,26 25,26l557 0c15,0 26,-12 26,-26l0 -147c0,-13 -11,-25 -26,-25l-372 0 0 -182 307 0c13,0 25,-11 25,-25l0 -147c0,-14 -12,-26 -25,-26l-307 0 0 -167 372 0c15,0 26,-12 26,-25l0 -147c0,-13 -11,-25 -26,-25l-557 0c-15,0 -25,12 -25,25l0 891zm1273 -444c0,269 214,483 483,483 269,0 485,-214 485,-483 0,-269 -216,-486 -485,-486 -269,0 -483,217 -483,486zm215 0c0,-148 122,-271 268,-271 148,0 269,123 269,271 0,147 -121,268 -269,268 -146,0 -268,-121 -268,-268zm1982 444c0,14 11,26 25,26l160 0c14,0 26,-12 26,-26l0 -429 302 -448c10,-18 0,-39 -22,-39l-175 0c-12,0 -17,6 -21,12l-188 276 -187 -276c-4,-6 -10,-12 -21,-12l-175 0c-22,0 -32,21 -22,39l298 449 0 428zm1810 0c0,14 11,26 26,26l159 0c13,0 25,-12 25,-26l0 -327 307 0c13,0 26,-12 26,-25l0 -147c0,-14 -13,-26 -26,-26l-307 0 0 -194 373 0c15,0 26,-12 26,-25l0 -147c0,-13 -11,-25 -26,-25l-557 0c-15,0 -26,12 -26,25l0 891zm1243 -444c0,269 214,483 483,483 269,0 484,-214 484,-483 0,-269 -215,-486 -484,-486 -269,0 -483,217 -483,486zm215 0c0,-148 121,-271 268,-271 148,0 269,123 269,271 0,147 -121,268 -269,268 -147,0 -268,-121 -268,-268zm1584 444c0,14 12,26 26,26l161 0c14,0 26,-12 26,-26l0 -719 192 0c15,0 26,-12 26,-25l0 -147c0,-13 -11,-25 -26,-25l-597 0c-15,0 -26,12 -26,25l0 147c0,13 11,25 26,25l192 0 0 719zm1045 -444c0,269 214,483 483,483 269,0 485,-214 485,-483 0,-269 -216,-486 -485,-486 -269,0 -483,217 -483,486zm215 0c0,-148 121,-271 268,-271 148,0 269,123 269,271 0,147 -121,268 -269,268 -147,0 -268,-121 -268,-268z"/>
 </g>
</svg>
