<?xml version="1.0" encoding="utf-8"?>
<!-- Generator: Adobe Illustrator 16.0.0, SVG Export Plug-In . SVG Version: 6.00 Build 0)  -->
<!DOCTYPE svg PUBLIC "-//W3C//DTD SVG 1.0//EN" "http://www.w3.org/TR/2001/REC-SVG-20010904/DTD/svg10.dtd">
<svg version="1.0" id="Layer_1" xmlns="http://www.w3.org/2000/svg" xmlns:xlink="http://www.w3.org/1999/xlink" x="0px" y="0px"
	 width="440.291px" height="131.455px" viewBox="0 0 440.291 131.455" enable-background="new 0 0 440.291 131.455"
	 xml:space="preserve">
<g>
	<path fill="#555555" d="M6.39,11.53c0-1.191-0.024-2.169-0.095-3.122H8.13l0.095,1.859h0.071c0.644-1.096,1.716-2.121,3.623-2.121
		c1.573,0,2.765,0.953,3.265,2.312h0.048c0.357-0.644,0.81-1.144,1.287-1.502c0.691-0.524,1.454-0.81,2.55-0.81
		c1.525,0,3.79,1.001,3.79,5.005v6.793h-2.05v-6.531c0-2.216-0.811-3.551-2.502-3.551c-1.192,0-2.122,0.882-2.479,1.907
		c-0.095,0.286-0.167,0.667-0.167,1.049v7.126h-2.049v-6.912c0-1.835-0.811-3.17-2.408-3.17c-1.311,0-2.264,1.049-2.598,2.098
		c-0.119,0.31-0.167,0.667-0.167,1.025v6.959H6.39V11.53z"/>
	<path fill="#555555" d="M35.795,17.179c0,1.001,0.047,1.978,0.19,2.765h-1.907l-0.167-1.454h-0.071
		c-0.644,0.906-1.883,1.716-3.527,1.716c-2.336,0-3.528-1.645-3.528-3.313c0-2.789,2.479-4.314,6.936-4.29v-0.238
		c0-0.954-0.262-2.669-2.622-2.669c-1.073,0-2.193,0.333-3.003,0.858L27.62,9.17c0.953-0.62,2.335-1.025,3.79-1.025
		c3.527,0,4.386,2.407,4.386,4.719V17.179z M33.769,14.056c-2.288-0.047-4.886,0.358-4.886,2.598c0,1.358,0.906,2.002,1.978,2.002
		c1.502,0,2.455-0.953,2.789-1.931c0.072-0.214,0.119-0.453,0.119-0.667V14.056z"/>
	<path fill="#555555" d="M50.568,3.021v13.943c0,1.025,0.024,2.193,0.095,2.979h-1.883l-0.095-2.002h-0.048
		c-0.644,1.287-2.05,2.264-3.933,2.264c-2.789,0-4.934-2.36-4.934-5.863c-0.024-3.837,2.359-6.197,5.172-6.197
		c1.764,0,2.956,0.834,3.48,1.764h0.047V3.021H50.568z M48.471,13.103c0-0.262-0.023-0.62-0.095-0.882
		c-0.31-1.335-1.454-2.431-3.027-2.431c-2.169,0-3.456,1.907-3.456,4.457c0,2.335,1.144,4.266,3.408,4.266
		c1.406,0,2.693-0.929,3.075-2.502c0.072-0.286,0.095-0.572,0.095-0.906V13.103z"/>
	<path fill="#555555" d="M56.642,14.557c0.048,2.836,1.859,4.004,3.957,4.004c1.501,0,2.407-0.262,3.194-0.596l0.357,1.501
		c-0.739,0.333-2.002,0.739-3.837,0.739c-3.551,0-5.672-2.36-5.672-5.839c0-3.48,2.05-6.221,5.41-6.221
		c3.766,0,4.767,3.313,4.767,5.434c0,0.429-0.048,0.763-0.072,0.977H56.642z M62.791,13.055c0.024-1.334-0.548-3.408-2.908-3.408
		c-2.122,0-3.051,1.955-3.218,3.408H62.791z"/>
	<path fill="#555555" d="M75.321,3.021h2.074v7.246h0.048c0.739-1.287,2.073-2.121,3.933-2.121c2.86,0,4.886,2.383,4.862,5.887
		c0,4.124-2.598,6.173-5.172,6.173c-1.668,0-3.003-0.644-3.861-2.169h-0.072l-0.095,1.907h-1.812
		c0.048-0.787,0.095-1.955,0.095-2.979V3.021z M77.395,15.319c0,0.262,0.048,0.524,0.095,0.763c0.405,1.454,1.621,2.455,3.146,2.455
		c2.193,0,3.504-1.788,3.504-4.433c0-2.312-1.192-4.29-3.432-4.29c-1.43,0-2.765,0.977-3.194,2.574
		c-0.048,0.239-0.119,0.524-0.119,0.858V15.319z"/>
	<path fill="#555555" d="M90.905,8.408l2.526,6.816c0.262,0.763,0.548,1.668,0.739,2.36h0.047c0.215-0.691,0.453-1.573,0.739-2.407
		l2.288-6.769h2.217l-3.146,8.223c-1.501,3.957-2.526,5.982-3.957,7.222c-1.025,0.906-2.05,1.263-2.574,1.359l-0.524-1.764
		c0.524-0.167,1.216-0.5,1.835-1.025c0.572-0.453,1.287-1.263,1.764-2.335c0.095-0.214,0.167-0.381,0.167-0.5
		s-0.048-0.286-0.143-0.548l-4.267-10.63H90.905z"/>
</g>
<g opacity="0.9">
	<g>
		<path fill="#555555" d="M0,62.476v1.027h10.785l-2.37-9.428C8.415,54.074,5.777,59.311,0,62.476z"/>
		<path fill="#555555" d="M0,63.502v-1.027h10.785l-2.21,9.604C8.574,72.079,5.777,66.665,0,63.502z"/>
		<path fill="#555555" d="M433.393,63.027v1.034h-10.785l2.365-9.429C424.973,54.633,427.609,59.867,433.393,63.027z"/>
		<path fill="#555555" d="M433.393,64.062v-1.034h-10.785l2.206,9.595C424.814,72.622,427.609,67.212,433.393,64.062z"/>
		<g>
			<path fill="#555555" d="M56.207,49.592c-3.839-6.455-10.296-11.03-20.02-11.03c-13.809,0-23.614,10.214-23.614,24.187
				c0,13.975,9.806,24.189,23.614,24.189c9.724,0,16.18-4.578,20.02-11.032h0.981v15.854h-0.899l-4.249-4.576
				c-4.494,2.86-9.56,4.576-15.363,4.576c-17.813,0-29.58-12.993-29.58-29.01c0-16.017,11.767-29.01,29.58-29.01
				c5.885,0,10.951,1.633,15.445,4.578l4.167-4.578h0.899v15.854H56.207z"/>
			<path fill="#555555" d="M125.582,62.748c0,16.426-13.154,29.01-29.008,29.01c-15.771,0-29.012-12.584-29.012-29.01
				c0-16.753,13.24-29.01,29.012-29.01C112.427,33.738,125.582,45.995,125.582,62.748z M73.283,62.748
				c0,12.83,9.562,24.189,23.291,24.189c13.809,0,23.287-11.359,23.287-24.189c0-13.238-9.479-24.187-23.287-24.187
				C82.845,38.562,73.283,49.592,73.283,62.748z"/>
			<path fill="#555555" d="M181.057,90.534h-10.624L147.06,62.748v-1.145h7.521c7.599,0,13.072-3.758,13.072-11.03
				c0-7.191-5.474-10.951-13.072-10.951h-10.052v46.66l6.7,3.351v0.9h-18.223v-0.9l6.375-3.433V39.295l-6.375-3.433v-0.899h23.208
				c9.48,0,17.077,6.211,17.077,15.689c0,9.563-8.987,15.12-17.486,15.365l17.731,19.695l7.521,3.921V90.534z"/>
			<path fill="#555555" d="M217.158,45.504c-2.863-4.167-8.174-6.779-13.486-6.779c-6.045,0-10.46,3.921-10.46,9.479
				c0,6.945,5.23,9.314,15.444,13.809c6.539,2.862,11.688,6.784,11.688,14.71c0,7.681-5.64,15.036-16.999,15.036
				c-6.209,0-12.012-2.288-15.854-5.882v-7.765h0.9c3.269,5.639,9.153,8.745,15.689,8.745c7.274,0,10.787-4.742,10.787-9.563
				c0-6.7-3.84-8.824-16.59-14.299c-6.454-2.779-10.623-6.948-10.623-14.708c0-8.663,7.356-14.547,15.935-14.547
				c6.621,0,11.605,2.288,14.384,4.333v7.434H217.158z"/>
			<path fill="#555555" d="M283.829,89.634v0.9h-17.734v-0.9l6.294-3.351l-5.885-14.22h-22.227l-5.721,14.138h0.409l6.291,3.433v0.9
				h-17.978v-0.9l6.293-4.494l21.574-51.481h0.979l21.492,51.563L283.829,89.634z M264.625,67.487l-9.396-22.798l-9.153,22.798
				H264.625z"/>
			<path fill="#555555" d="M338.084,90.534H327.46l-23.371-27.786v-1.145h7.518c7.6,0,13.075-3.758,13.075-11.03
				c0-7.191-5.476-10.951-13.075-10.951h-10.051v46.66l6.7,3.351v0.9h-18.223v-0.9l6.375-3.433V39.295l-6.375-3.433v-0.899h23.21
				c9.479,0,17.078,6.211,17.078,15.689c0,9.563-8.99,15.12-17.487,15.365l17.732,19.695l7.518,3.921V90.534z"/>
			<path fill="#555555" d="M355.228,39.295v46.906l6.293,3.433v0.9h-17.816v-0.9l6.375-3.433V39.295l-6.375-3.433v-0.899h17.816
				v0.899L355.228,39.295z"/>
			<path fill="#555555" d="M426.521,62.748c0,16.426-13.157,29.01-29.011,29.01c-15.771,0-29.01-12.584-29.01-29.01
				c0-16.753,13.238-29.01,29.01-29.01C413.364,33.738,426.521,45.995,426.521,62.748z M374.221,62.748
				c0,12.83,9.56,24.189,23.289,24.189c13.809,0,23.29-11.359,23.29-24.189c0-13.238-9.481-24.187-23.29-24.187
				C383.781,38.562,374.221,49.592,374.221,62.748z"/>
		</g>
		<g>
			<path fill="#555555" d="M163.593,126.87v2.983c0,0.656-0.219,1.057-1.057,1.057h-16.299c-0.838,0-1.057-0.4-1.057-1.057v-21.831
				c0-0.654,0.219-1.056,1.057-1.056h15.681c0.836,0,1.057,0.402,1.057,1.056v3.02c0,0.657-0.221,1.057-1.057,1.057h-10.987v3.964
				h9.752c0.836,0,1.054,0.402,1.054,1.056v2.838c0,0.654-0.218,1.057-1.054,1.057h-9.752v4.803h11.605
				C163.375,125.816,163.593,126.216,163.593,126.87z"/>
			<path fill="#555555" d="M185.747,123.813c0,5.166-4.076,7.643-9.681,7.643c-4.549,0-9.787-2.622-9.787-7.716
				c0-0.836,0.218-1.018,1.056-1.018h3.528c0.836,0,1.238,0.109,1.311,1.018c0.037,0.473,0.219,0.948,0.691,1.493
				c0.727,0.875,2.217,1.202,3.566,1.202c1.963,0,3.564-0.437,3.564-2.477c0-2.036-3.237-2.072-6.331-3.056
				c-3.677-1.166-7.06-2.62-7.06-7.241c0-4.73,4.295-7.059,8.843-7.241c4.621,0,9.679,2.111,9.679,6.914
				c0,0.873-0.219,1.018-1.057,1.018h-3.564c-0.693,0-0.803-0.509-0.984-0.981c-0.146-0.363-0.327-0.654-0.764-1.09
				c-0.69-0.657-1.999-0.984-3.092-0.984c-1.201,0-3.201,0.475-3.201,2.111c0,2.22,5.349,3.021,6.803,3.603
				C181.888,117.81,185.747,118.864,185.747,123.813z"/>
			<path fill="#555555" d="M207.243,108.022v3.02c0,0.657-0.218,1.057-1.056,1.057h-5.568v17.755c0,0.838-0.4,1.057-1.055,1.057
				h-3.604c-0.654,0-1.054-0.219-1.054-1.057v-17.755h-5.603c-0.836,0-1.055-0.4-1.055-1.057v-3.02c0-0.654,0.219-1.056,1.055-1.056
				h16.883C207.025,106.966,207.243,107.368,207.243,108.022z"/>
			<path fill="#555555" d="M229.831,108.022v15.572c0,5.714-5.312,7.86-9.643,7.86c-4.33,0-9.605-2.146-9.605-7.86v-15.572
				c0-0.836,0.4-1.056,1.055-1.056h3.603c0.654,0,1.055,0.22,1.055,1.056v14.772c0,2.292,1.492,3.603,3.894,3.603
				s3.931-1.311,3.931-3.603v-14.772c0-0.836,0.4-1.056,1.055-1.056h3.603C229.43,106.966,229.831,107.187,229.831,108.022z"/>
			<path fill="#555555" d="M253.91,115.152v7.57c0,5.712-5.457,8.188-9.787,8.188h-8.148c-0.839,0-1.057-0.4-1.057-1.057v-21.831
				c0-0.654,0.218-1.056,1.057-1.056h8.148C248.453,106.966,253.91,109.477,253.91,115.152z M248.199,115.663
				c0-2.292-1.675-3.637-4.076-3.637h-3.492v13.827h3.492c2.401,0,4.076-1.311,4.076-3.64V115.663z"/>
			<path fill="#555555" d="M270.023,126.979v2.874c0,0.656-0.219,1.057-1.055,1.057h-10.299c-0.836,0-1.054-0.4-1.054-1.057v-2.874
				c0-0.654,0.218-1.054,1.054-1.054h2.293v-13.9h-2.22c-0.836,0-1.054-0.402-1.054-1.057v-2.947c0-0.654,0.218-1.056,1.054-1.056
				h10.116c0.836,0,1.055,0.402,1.055,1.056v2.947c0,0.654-0.219,1.057-1.055,1.057h-2.183v13.9h2.292
				C269.804,125.926,270.023,126.325,270.023,126.979z"/>
			<path fill="#555555" d="M293.521,123.23c0,5.748-5.457,8.225-9.787,8.225s-9.715-2.477-9.715-8.225v-8.587
				c0-5.748,5.385-8.222,9.715-8.222s9.787,2.474,9.787,8.222V123.23z M287.809,115.152c0-2.327-1.674-3.674-4.075-3.674
				c-2.365,0-4.04,1.347-4.04,3.674v7.57c0,2.329,1.675,3.676,4.04,3.676c2.401,0,4.075-1.347,4.075-3.676V115.152z"/>
		</g>
		<path fill="#555555" d="M440.291,104.433"/>
	</g>
</g>
<g>
</g>
<g>
</g>
<g>
</g>
<g>
</g>
<g>
</g>
<g>
</g>
<g>
</g>
<g>
</g>
<g>
</g>
<g>
</g>
<g>
</g>
<g>
</g>
<g>
</g>
<g>
</g>
<g>
</g>
</svg>
