<?xml version="1.0" encoding="utf-8"?>
<!-- Generator: Adobe Illustrator 16.0.0, SVG Export Plug-In . SVG Version: 6.00 Build 0)  -->
<!DOCTYPE svg PUBLIC "-//W3C//DTD SVG 1.0//EN" "http://www.w3.org/TR/2001/REC-SVG-20010904/DTD/svg10.dtd">
<svg version="1.0" id="Layer_1" xmlns="http://www.w3.org/2000/svg" xmlns:xlink="http://www.w3.org/1999/xlink" x="0px" y="0px"
	 width="159.972px" height="159.977px" viewBox="0 0 159.972 159.977" enable-background="new 0 0 159.972 159.977"
	 xml:space="preserve">
<path fill-rule="evenodd" clip-rule="evenodd" fill="#666666" d="M88.734,57.179c0.175-2.11,2.824-7.994,3.808-9.621
	c3.387-5.592,7.393-11.031,13.685-13.813c6.258-2.763,17.313-4.115,23.448,0.312c0.511,0.369,0.515,0.397,1.017,0.852l1.135,1.05
	c4.711,4.967,4.399,11.579,4.399,17.785c0,15.875-18.827,40.046-28.386,51.91l-6.06,6.754c-1.509,1.495-2.829,2.952-4.371,4.38
	c-0.525,0.482-0.497,0.407-1.041,0.833c-3.737,2.914-2.971,2.952-8.443,6.556c-6.807,4.484-16.367,7.445-22.535,0.094
	c-2.762-3.301-5.662-8.552-7.232-12.771c-1.48-3.973-8.349-30.141-10.108-36.442c-0.932-3.349-2.219-6.812-3.685-9.753
	c-6.442-12.914-10.525-2.923-15.624-1.561c-0.657-0.482-1.954-2.299-2.54-3.084c-0.828-1.116-1.708-2.044-2.455-3.16
	c0.762-1.145,2.313-2.214,3.666-3.528l4.011-3.481c2.356-1.816,7.814-7.2,11.826-10.359c3.77-2.952,9.74-7.635,14.867-7.635
	c14.626,0,15.07,21.268,17.27,33.973c1.102,6.376,3.907,22.024,8.093,26.271c3.567,3.633,7.413-2.081,9.702-4.862
	c1.793-2.167,3.571-5.27,5.062-7.748c2.762-4.589,9.825-17.559,4.011-22.715c-2.512-2.232-6.792-2.063-9.943-1.343
	C90.977,56.375,89.827,56.923,88.734,57.179L88.734,57.179z M76.497,0c-5.69,0.237-11.329,1.022-16.641,2.375
	c-5.416,1.381-9.323,3.037-14.021,5.042C34.464,12.27,21.418,23.689,14.555,33.623C6.149,45.789,0,61.294,0,76.554
	c0,16.196,1.079,22.752,7.408,37.586c4.858,11.372,16.276,24.417,26.205,31.286c8.103,5.591,16.229,9.583,25.998,12.119
	c5.354,1.391,11.059,2.205,16.821,2.432h7.039c5.69-0.227,11.329-1.022,16.641-2.365c7.308-1.854,13.883-4.673,20.165-8.269
	c18.164-10.388,31.981-28.589,37.265-48.977c1.386-5.354,2.199-11.059,2.431-16.82v-7.039c-0.232-5.695-1.021-11.333-2.37-16.641
	c-1.854-7.313-4.674-13.878-8.269-20.16C138.946,21.542,120.749,7.72,100.361,2.441C95.007,1.05,89.302,0.237,83.536,0H76.497z"/>
<g>
</g>
<g>
</g>
<g>
</g>
<g>
</g>
<g>
</g>
<g>
</g>
<g>
</g>
<g>
</g>
<g>
</g>
<g>
</g>
<g>
</g>
<g>
</g>
<g>
</g>
<g>
</g>
<g>
</g>
</svg>
