<?xml version="1.0" encoding="utf-8"?>
<!-- Generator: Adobe Illustrator 16.0.0, SVG Export Plug-In . SVG Version: 6.00 Build 0)  -->
<!DOCTYPE svg PUBLIC "-//W3C//DTD SVG 1.0//EN" "http://www.w3.org/TR/2001/REC-SVG-20010904/DTD/svg10.dtd">
<svg version="1.0" id="Layer_1" xmlns="http://www.w3.org/2000/svg" xmlns:xlink="http://www.w3.org/1999/xlink" x="0px" y="0px"
	 width="162.769px" height="162.779px" viewBox="0 0 162.769 162.779" enable-background="new 0 0 162.769 162.779"
	 xml:space="preserve">
<g>
	<path fill-rule="evenodd" clip-rule="evenodd" fill="#666666" d="M97.915,121.124c-10.071,0-32.538,0.46-41.665-0.297
		c-1.375-0.115-3.033,0.019-4.441-0.009l-12.371-0.978c-3.143-0.211-6.444-1.601-8.557-3.517c-3.22-2.922-4.264-5.27-5.107-9.525
		c-2.3-11.652-2.357-38.934-0.058-50.557c0.412-2.061,1.323-5.146,2.338-6.564c4.384-6.171,8.667-6.535,15.208-7.043
		c18.029-1.409,36.39-0.987,54.654-0.987l13.047,0.307c1.777,0.029,2.208,0.307,4.125,0.326c2.583,0.038,5.424,0.47,8.246,0.661
		c4.854,0.326,7.594,2.3,10.272,5.299c6.501,7.292,5.002,31.891,5.002,41.732c0,5.567-0.623,11.719-1.504,16.3
		c-0.925,4.811-2.64,8.729-6.852,11.269c-1.907,1.15-4.029,2.012-6.626,2.271l-8.222,0.68
		C109.605,120.644,104.119,121.124,97.915,121.124L97.915,121.124z M77.834,0c-5.788,0.239-11.528,1.044-16.933,2.415
		c-5.51,1.399-9.486,3.085-14.263,5.126C35.067,12.486,21.796,24.1,14.81,34.21C6.258,46.581,0,62.363,0,77.887
		c0,16.482,1.093,23.151,7.537,38.244c4.939,11.576,16.563,24.848,26.663,31.833c8.241,5.692,16.511,9.755,26.453,12.333
		c5.448,1.418,11.25,2.242,17.114,2.482h7.163c5.793-0.24,11.528-1.044,16.933-2.415c7.436-1.888,14.125-4.753,20.516-8.414
		c18.48-10.569,32.542-29.083,37.918-49.829c1.414-5.453,2.233-11.25,2.472-17.114v-7.168c-0.234-5.788-1.04-11.528-2.41-16.932
		c-1.888-7.436-4.758-14.125-8.414-20.516c-10.569-18.476-29.088-32.533-49.829-37.918C96.669,1.063,90.867,0.239,85.002,0H77.834z"
		/>
	<path fill-rule="evenodd" clip-rule="evenodd" fill="#666666" d="M66.441,99.505c3.085-1.629,6.08-3.191,9.223-4.762l27.655-14.307
		c-0.729-0.997-3.225-1.936-4.451-2.549c-1.639-0.814-2.841-1.581-4.557-2.434L73.647,64.644c-0.882-0.479-1.428-0.709-2.329-1.169
		c-1.136-0.565-4.005-2.204-4.877-2.434V99.505z"/>
</g>
<g>
</g>
<g>
</g>
<g>
</g>
<g>
</g>
<g>
</g>
<g>
</g>
<g>
</g>
<g>
</g>
<g>
</g>
<g>
</g>
<g>
</g>
<g>
</g>
<g>
</g>
<g>
</g>
<g>
</g>
</svg>
